<svg width="35" height="36" viewBox="0 0 35 36" fill="none" xmlns="http://www.w3.org/2000/svg">
<mask id="path-1-inside-1_302_1681" fill="white">
<path d="M34.0401 17.5874C34.0401 27.3006 26.42 35.1748 17.0201 35.1748C7.62014 35.1748 0 27.3006 0 17.5874C0 7.87414 7.62014 0 17.0201 0C26.42 0 34.0401 7.87414 34.0401 17.5874Z"/>
</mask>
<path d="M34.0401 17.5874C34.0401 27.3006 26.42 35.1748 17.0201 35.1748C7.62014 35.1748 0 27.3006 0 17.5874C0 7.87414 7.62014 0 17.0201 0C26.42 0 34.0401 7.87414 34.0401 17.5874Z" fill="white"/>
<path d="M33.0401 17.5874C33.0401 26.7795 25.837 34.1748 17.0201 34.1748V36.1748C27.0029 36.1748 35.0401 27.8218 35.0401 17.5874H33.0401ZM17.0201 34.1748C8.20308 34.1748 1 26.7795 1 17.5874H-1C-1 27.8218 7.0372 36.1748 17.0201 36.1748V34.1748ZM1 17.5874C1 8.39527 8.20308 1 17.0201 1V-1C7.0372 -1 -1 7.35302 -1 17.5874H1ZM17.0201 1C25.837 1 33.0401 8.39527 33.0401 17.5874H35.0401C35.0401 7.35302 27.0029 -1 17.0201 -1V1Z" fill="black" mask="url(#path-1-inside-1_302_1681)"/>
<g clip-path="url(#clip0_302_1681)">
<path d="M23.0795 9.45068C22.9551 9.44948 22.8329 9.48388 22.7274 9.54984C22.6218 9.61579 22.5374 9.71054 22.4839 9.82292C22.4305 9.93529 22.4103 10.0606 22.4257 10.1841C22.4412 10.3076 22.4916 10.424 22.5711 10.5198C24.1357 12.4661 25.0763 14.927 25.0763 17.6125C25.0763 20.1556 24.2266 22.4924 22.8068 24.3892C22.7554 24.4578 22.7181 24.5358 22.6969 24.6189C22.6756 24.7019 22.671 24.7883 22.6832 24.8732C22.6954 24.958 22.7242 25.0396 22.7679 25.1133C22.8116 25.1871 22.8694 25.2515 22.938 25.3028C23.0067 25.3542 23.0847 25.3916 23.1678 25.4128C23.2508 25.434 23.3372 25.4386 23.4221 25.4264C23.5069 25.4142 23.5885 25.3855 23.6622 25.3417C23.736 25.298 23.8003 25.2402 23.8517 25.1716C25.4305 23.0623 26.3812 20.4467 26.3812 17.6125C26.3812 14.6218 25.3298 11.8684 23.5879 9.70171C23.5275 9.62431 23.4504 9.56154 23.3624 9.51808C23.2744 9.47461 23.1777 9.45157 23.0795 9.45068ZM19.881 11.343C19.7568 11.3403 19.6343 11.3731 19.5281 11.4377C19.4219 11.5022 19.3363 11.5957 19.2814 11.7072C19.2266 11.8187 19.2047 11.9436 19.2183 12.0671C19.232 12.1906 19.2806 12.3077 19.3586 12.4045C20.4854 13.8462 21.1617 15.6473 21.1617 17.6125C21.1617 19.4388 20.5783 21.1233 19.5918 22.5109C19.5381 22.5804 19.4991 22.6601 19.477 22.745C19.4549 22.83 19.4501 22.9186 19.4631 23.0055C19.476 23.0923 19.5064 23.1757 19.5523 23.2506C19.5982 23.3254 19.6588 23.3902 19.7304 23.4411C19.8019 23.492 19.883 23.5279 19.9688 23.5467C20.0546 23.5655 20.1433 23.5668 20.2296 23.5505C20.3159 23.5342 20.398 23.5006 20.471 23.4518C20.544 23.403 20.6064 23.34 20.6545 23.2665C21.7897 21.6698 22.4666 19.7177 22.4666 17.6125C22.4666 15.3473 21.6832 13.2603 20.3869 11.6017C20.3276 11.5232 20.2512 11.4592 20.1636 11.4144C20.076 11.3696 19.9794 11.3452 19.881 11.343ZM13.9849 12.2261L11.2401 14.8358H8.76541C7.68433 14.8358 6.80811 15.712 6.80811 16.7931V18.098C6.80811 19.1791 7.68433 20.0553 8.76541 20.0553H11.2401L13.9849 22.665V12.2261ZM16.4239 13.2646C16.2943 13.2618 16.1668 13.2977 16.0577 13.3677C15.9486 13.4377 15.8628 13.5386 15.8112 13.6575C15.7597 13.7765 15.7447 13.9081 15.7683 14.0356C15.7918 14.163 15.8528 14.2806 15.9435 14.3733C16.7509 15.2191 17.2471 16.3548 17.2471 17.6125C17.2471 18.7367 16.8508 19.7642 16.1907 20.5752C16.1334 20.6413 16.09 20.7181 16.063 20.8013C16.036 20.8844 16.026 20.9721 16.0336 21.0592C16.0412 21.1463 16.0662 21.231 16.1071 21.3082C16.148 21.3854 16.2041 21.4537 16.2719 21.5088C16.3397 21.564 16.4179 21.605 16.5018 21.6293C16.5858 21.6537 16.6737 21.6609 16.7605 21.6507C16.8474 21.6403 16.9312 21.6127 17.0071 21.5694C17.083 21.5261 17.1495 21.4679 17.2025 21.3984C18.043 20.3656 18.5519 19.0445 18.5519 17.6125C18.5519 16.0099 17.915 14.5485 16.8877 13.4723C16.8282 13.4084 16.7565 13.3571 16.6769 13.3215C16.5972 13.2858 16.5112 13.2665 16.4239 13.2646Z" fill="black"/>
</g>
<defs>
<clipPath id="clip0_302_1681">
<rect width="19.5731" height="19.5731" fill="white" transform="translate(6.80811 7.65903)"/>
</clipPath>
</defs>
</svg>
