<svg width="20" height="20" viewBox="0 0 20 20" fill="none" xmlns="http://www.w3.org/2000/svg">
<g clip-path="url(#clip0_307_2841)">
<path d="M10 0.666504C5.2217 0.666504 1.33337 4.55483 1.33337 9.33317C1.33337 12.6712 3.22819 15.5723 6.00134 17.0181C6.07897 17.0586 6.16383 17.0834 6.25105 17.0912C6.33828 17.0989 6.42618 17.0894 6.50973 17.0631C6.59328 17.0369 6.67084 16.9945 6.73799 16.9382C6.80514 16.882 6.86056 16.8131 6.90108 16.7355C6.94161 16.6579 6.96645 16.573 6.97418 16.4858C6.98191 16.3986 6.97239 16.3107 6.94615 16.2271C6.91991 16.1436 6.87747 16.066 6.82126 15.9989C6.76505 15.9317 6.69616 15.8763 6.61853 15.8358C4.27168 14.6122 2.66671 12.1671 2.66671 9.33317C2.66671 5.27551 5.94238 1.99984 10 1.99984C14.0577 1.99984 17.3334 5.27551 17.3334 9.33317C17.3334 12.1671 15.7289 14.6129 13.3829 15.8358C13.3031 15.875 13.2319 15.9297 13.1736 15.9968C13.1153 16.0639 13.0709 16.1419 13.0432 16.2264C13.0155 16.3108 13.005 16.4 13.0122 16.4886C13.0195 16.5772 13.0444 16.6634 13.0854 16.7423C13.1265 16.8211 13.1829 16.8909 13.2514 16.9476C13.3198 17.0044 13.3989 17.0468 13.484 17.0725C13.5691 17.0982 13.6585 17.1066 13.7469 17.0973C13.8353 17.0879 13.9209 17.061 13.9987 17.0181C16.7713 15.5729 18.6667 12.6712 18.6667 9.33317C18.6667 4.55483 14.7784 0.666504 10 0.666504ZM10 3.33317C6.69436 3.33317 4.00004 6.02749 4.00004 9.33317C4.00004 11.0233 4.70562 12.5554 5.83207 13.6444C5.95933 13.7673 6.13021 13.8347 6.30712 13.8316C6.48404 13.8286 6.65249 13.7553 6.77543 13.6281C6.89837 13.5008 6.96572 13.33 6.96267 13.153C6.95962 12.9761 6.88641 12.8077 6.75916 12.6847C5.88028 11.8351 5.33337 10.6537 5.33337 9.33317C5.33337 6.74818 7.41505 4.6665 10 4.6665C12.585 4.6665 14.6667 6.74818 14.6667 9.33317C14.6667 10.6537 14.1198 11.8351 13.2409 12.6847C13.1779 12.7456 13.1275 12.8183 13.0925 12.8986C13.0576 12.979 13.0388 13.0655 13.0373 13.1531C13.0358 13.2407 13.0516 13.3277 13.0837 13.4092C13.1158 13.4908 13.1637 13.5652 13.2246 13.6282C13.2854 13.6912 13.3581 13.7416 13.4385 13.7765C13.5189 13.8114 13.6053 13.8302 13.6929 13.8317C13.7805 13.8332 13.8676 13.8174 13.9491 13.7853C14.0306 13.7531 14.105 13.7053 14.168 13.6444C15.2945 12.5554 16 11.0233 16 9.33317C16 6.02749 13.3057 3.33317 10 3.33317ZM10 7.33317C9.46961 7.33317 8.9609 7.54388 8.58583 7.91896C8.21075 8.29403 8.00004 8.80274 8.00004 9.33317C8.00004 9.8636 8.21075 10.3723 8.58583 10.7474C8.9609 11.1225 9.46961 11.3332 10 11.3332C10.5305 11.3332 11.0392 11.1225 11.4143 10.7474C11.7893 10.3723 12 9.8636 12 9.33317C12 8.80274 11.7893 8.29403 11.4143 7.91896C11.0392 7.54388 10.5305 7.33317 10 7.33317ZM10 12.6665C8.89537 12.6665 8.00004 13.5618 8.00004 14.6665C8.00004 14.7652 8.01599 14.8602 8.02999 14.9556H8.02218L8.04041 15.061C8.04107 15.065 8.04104 15.0701 8.04171 15.0741L8.67712 18.8254L8.68233 18.8241C8.76167 19.4854 9.31804 19.9998 10 19.9998C10.682 19.9998 11.2384 19.4854 11.3177 18.8241L11.323 18.8254L11.9584 15.0741C11.959 15.0701 11.959 15.065 11.9597 15.061L11.9779 14.9556H11.9701C11.9841 14.8602 12 14.7652 12 14.6665C12 13.5618 11.1047 12.6665 10 12.6665Z" fill="black"/>
</g>
<defs>
<clipPath id="clip0_307_2841">
<rect width="20" height="20" fill="white"/>
</clipPath>
</defs>
</svg>
