<svg width="20" height="19" viewBox="0 0 20 19" fill="none" xmlns="http://www.w3.org/2000/svg">
<path d="M8.38536 0.236938C3.93667 0.236938 0.312988 3.70209 0.312988 7.95614C0.312988 12.2102 3.93667 15.6753 8.38536 15.6753C10.3199 15.6753 12.0965 15.0184 13.4889 13.928L18.3087 18.5369C18.6238 18.8385 19.135 18.8385 19.4503 18.537C19.7656 18.2355 19.7656 17.7467 19.4503 17.4452L14.6304 12.8364C15.7708 11.505 16.4577 9.80605 16.4577 7.95614C16.4577 3.70209 12.834 0.236938 8.38536 0.236938ZM8.38536 1.78078C11.9615 1.78078 14.8432 4.53644 14.8432 7.95614C14.8432 11.3758 11.9615 14.1315 8.38536 14.1315C4.8092 14.1315 1.92746 11.3758 1.92746 7.95614C1.92746 4.53644 4.8092 1.78078 8.38536 1.78078Z" fill="black"/>
</svg>
