<svg width="54" height="55" viewBox="0 0 54 55" fill="none" xmlns="http://www.w3.org/2000/svg">
<path d="M45.073 45.822H8.92676C7.02534 45.8197 5.20245 45.0494 3.85794 43.68C2.51344 42.3106 1.75712 40.4539 1.75488 38.5173V16.4829C1.75712 14.5463 2.51344 12.6896 3.85794 11.3202C5.20245 9.95083 7.02534 9.1805 8.92676 9.17822H45.073C46.9744 9.1805 48.7973 9.95083 50.1418 11.3202C51.4863 12.6896 52.2426 14.5463 52.2449 16.4829V38.5173C52.2426 40.4539 51.4863 42.3106 50.1418 43.68C48.7973 45.0494 46.9744 45.8197 45.073 45.822ZM8.92676 11.7563C7.69599 11.7563 6.51563 12.2543 5.64534 13.1407C4.77505 14.0271 4.28613 15.2293 4.28613 16.4829V38.5173C4.28613 39.7708 4.77505 40.9731 5.64534 41.8595C6.51563 42.7459 7.69599 43.2438 8.92676 43.2438H45.073C46.3038 43.2438 47.4841 42.7459 48.3544 41.8595C49.2247 40.9731 49.7136 39.7708 49.7136 38.5173V16.4829C49.7136 15.2293 49.2247 14.0271 48.3544 13.1407C47.4841 12.2543 46.3038 11.7563 45.073 11.7563H8.92676Z" fill="#232323"/>
<path d="M27 32.7252C25.4387 32.7276 23.9191 32.2117 22.6715 31.2556L2.96996 16.0791C2.83076 15.9796 2.71268 15.8525 2.62276 15.7055C2.53285 15.5585 2.47295 15.3945 2.44664 15.2234C2.42032 15.0522 2.42814 14.8775 2.46963 14.7095C2.51111 14.5415 2.58541 14.3838 2.68808 14.2457C2.79075 14.1076 2.91969 13.992 3.0672 13.9058C3.21471 13.8196 3.37776 13.7646 3.54662 13.744C3.71548 13.7234 3.88667 13.7377 4.04999 13.786C4.2133 13.8343 4.36538 13.9156 4.49715 14.0252L24.1987 29.2189C25.0078 29.834 25.9903 30.1664 27 30.1664C28.0096 30.1664 28.9922 29.834 29.8012 29.2189L49.5028 14.0252C49.6345 13.9156 49.7866 13.8343 49.9499 13.786C50.1133 13.7377 50.2844 13.7234 50.4533 13.744C50.6222 13.7646 50.7852 13.8196 50.9327 13.9058C51.0802 13.992 51.2092 14.1076 51.3118 14.2457C51.4145 14.3838 51.4888 14.5415 51.5303 14.7095C51.5718 14.8775 51.5796 15.0522 51.5533 15.2234C51.527 15.3945 51.4671 15.5585 51.3772 15.7055C51.2872 15.8525 51.1692 15.9796 51.03 16.0791L31.3284 31.2556C30.0808 32.2117 28.5613 32.7276 27 32.7252Z" fill="#232323"/>
<path d="M3.51846 42.2296C3.26177 42.23 3.01103 42.1508 2.79952 42.0027C2.588 41.8546 2.42571 41.6444 2.33418 41.4002C2.24264 41.1559 2.2262 40.8891 2.28702 40.6351C2.34784 40.3811 2.48305 40.1519 2.67471 39.978L18.1997 25.8757C18.4503 25.6478 18.7796 25.5306 19.1151 25.5499C19.4505 25.5693 19.7647 25.7235 19.9885 25.9788C20.2122 26.2341 20.3273 26.5694 20.3083 26.9111C20.2893 27.2528 20.1378 27.5728 19.8872 27.8007L4.36221 41.903C4.13166 42.1167 3.83015 42.2334 3.51846 42.2296ZM50.4816 42.2296C50.1699 42.2334 49.8684 42.1167 49.6378 41.903L34.1128 27.8007C33.8622 27.5728 33.7107 27.2528 33.6917 26.9111C33.6728 26.5694 33.7878 26.2341 34.0116 25.9788C34.2354 25.7235 34.5495 25.5693 34.885 25.5499C35.2204 25.5306 35.5497 25.6478 35.8003 25.8757L51.3169 39.978C51.5086 40.1519 51.6438 40.3811 51.7046 40.6351C51.7654 40.8891 51.749 41.1559 51.6574 41.4002C51.5659 41.6444 51.4036 41.8546 51.1921 42.0027C50.9806 42.1508 50.7298 42.23 50.4731 42.2296H50.4816Z" fill="#232323"/>
</svg>
