<svg width="19" height="20" viewBox="0 0 19 20" fill="none" xmlns="http://www.w3.org/2000/svg">
<g clip-path="url(#clip0_307_1908)">
<path d="M18.5173 10.2155C18.5173 9.42033 18.4542 8.84005 18.3178 8.23828H9.448V11.8274H14.6544C14.5495 12.7193 13.9826 14.0626 12.723 14.9652L12.7053 15.0853L15.5098 17.3095L15.7041 17.3294C17.4885 15.6422 18.5173 13.1599 18.5173 10.2155Z" fill="#4285F4"/>
<path d="M9.44802 19.6717C11.9987 19.6717 14.14 18.8119 15.7041 17.329L12.723 14.9649C11.9253 15.5344 10.8546 15.932 9.44802 15.932C6.94979 15.932 4.82945 14.245 4.0736 11.9131L3.96281 11.9227L1.04668 14.2331L1.00854 14.3416C2.56206 17.5009 5.7531 19.6717 9.44802 19.6717Z" fill="#34A853"/>
<path d="M4.0737 11.913C3.87427 11.3113 3.75885 10.6665 3.75885 10.0003C3.75885 9.33397 3.87427 8.68924 4.06321 8.08748L4.05793 7.95931L1.10525 5.61182L1.00865 5.65886C0.36837 6.96988 0.000976562 8.4421 0.000976562 10.0003C0.000976562 11.5584 0.36837 13.0306 1.00865 14.3416L4.0737 11.913Z" fill="#FBBC05"/>
<path d="M9.44802 4.06867C11.222 4.06867 12.4186 4.85312 13.1009 5.50867L15.7671 2.84365C14.1296 1.2855 11.9987 0.329102 9.44802 0.329102C5.7531 0.329102 2.56206 2.49977 1.00854 5.65905L4.06311 8.08767C4.82945 5.7558 6.94979 4.06867 9.44802 4.06867Z" fill="#EB4335"/>
</g>
<defs>
<clipPath id="clip0_307_1908">
<rect width="18.5271" height="19.4094" fill="white" transform="translate(0 0.329102)"/>
</clipPath>
</defs>
</svg>
