<svg width="28" height="28" viewBox="0 0 28 28" fill="none" xmlns="http://www.w3.org/2000/svg">
<circle cx="14" cy="14" r="14" fill="#232323"/>
<path d="M14.0004 6.43945C11.7967 6.43945 10.0106 8.16923 10.0106 10.3034V10.9474C10.0106 13.0817 11.7967 14.8114 14.0004 14.8114C16.2041 14.8114 17.9901 13.0817 17.9901 10.9474V10.3034C17.9901 8.16923 16.2041 6.43945 14.0004 6.43945ZM13.9991 16.7434C11.3353 16.7434 7.91739 18.1389 6.93392 19.3773C6.32615 20.143 6.90471 21.2514 7.90149 21.2514H20.098C21.0948 21.2514 21.6733 20.143 21.0656 19.3773C20.0821 18.1395 16.6629 16.7434 13.9991 16.7434Z" fill="white"/>
</svg>
