<svg width="16" height="16" viewBox="0 0 16 16" fill="none" xmlns="http://www.w3.org/2000/svg">
<path d="M8 0C3.582 0 0 3.582 0 8C0 12.418 3.582 16 8 16C12.418 16 16 12.418 16 8C16 3.582 12.418 0 8 0ZM8 4C9.47066 4 10.6667 5.196 10.6667 6.66667V7.33333C11.0347 7.33333 11.3333 7.632 11.3333 8V10.6667C11.3333 11.0347 11.0347 11.3333 10.6667 11.3333H5.33333C4.96533 11.3333 4.66667 11.0347 4.66667 10.6667V8C4.66667 7.632 4.96533 7.33333 5.33333 7.33333V6.66667C5.33333 5.196 6.52933 4 8 4ZM8 5.33333C7.26467 5.33333 6.66667 5.93133 6.66667 6.66667V7.33333H9.33333V6.66667C9.33333 5.93133 8.73533 5.33333 8 5.33333Z" fill="#C7A546"/>
</svg>
