<svg width="50" height="44" viewBox="0 0 50 44" fill="none" xmlns="http://www.w3.org/2000/svg">
<g clip-path="url(#clip0_307_2001)">
<path fill-rule="evenodd" clip-rule="evenodd" d="M8.99262 43.3984C7.99344 43.3984 6.99426 43.1544 6.49508 42.4224C5.7459 41.6912 5.2459 40.716 5.2459 39.7408V35.84C5.2459 35.1088 4.7459 34.6208 3.99672 34.6208H3.74672C1.74836 34.6208 0 32.9144 0 30.964V3.656C0 1.7064 1.49918 0 3.74672 0H46.2139C48.2123 0 49.9607 1.7064 49.9607 3.6568V30.964C49.9607 32.9144 48.2123 34.6208 46.2139 34.6208H19.9844C19.7344 34.6208 19.2352 34.8648 18.9844 34.8648L11.491 42.1792C10.991 42.9104 9.9918 43.3984 8.99262 43.3984ZM3.74672 2.4384C2.99754 2.4384 2.49836 2.9264 2.49836 3.6568V30.964C2.49836 31.6952 2.99836 32.1832 3.74672 32.1832H3.99672C5.99508 32.1832 7.74426 33.8896 7.74426 35.84V39.7408C7.74426 40.2288 7.99344 40.472 8.24426 40.7168C8.74344 41.204 9.24262 41.448 9.9918 40.7168L17.4861 33.4016C18.2361 32.6704 19.2352 32.4264 20.2344 32.4264H46.4639C47.2131 32.4264 47.7131 31.9384 47.7131 31.208V3.656C47.4631 2.9248 46.7131 2.4376 46.2139 2.4376H3.74672V2.4384Z" fill="#232323"/>
<path fill-rule="evenodd" clip-rule="evenodd" d="M28.9773 10.9713H12.4904C11.7412 10.9713 11.2412 10.4833 11.2412 9.75209C11.2412 9.02089 11.7412 8.53369 12.4904 8.53369H29.2281C29.9765 8.53369 30.4765 9.02169 30.4765 9.75209C30.4765 10.4841 29.7273 10.9713 28.9773 10.9713ZM33.224 15.8481H12.4904C11.7412 15.8481 11.2412 15.3601 11.2412 14.6289C11.2412 13.8969 11.7412 13.4097 12.4904 13.4097H33.224C33.974 13.4097 34.4732 13.8977 34.4732 14.6289C34.4732 15.3601 33.9732 15.8481 33.224 15.8481ZM37.4707 20.7241H12.4904C11.7412 20.7241 11.2412 20.2361 11.2412 19.5049C11.2412 18.7737 11.7412 18.2857 12.4904 18.2857H37.4707C38.2207 18.2857 38.7199 18.7737 38.7199 19.5049C38.7199 20.2361 37.9707 20.7241 37.4707 20.7241ZM24.9806 25.6001H12.4904C11.7412 25.6001 11.2412 25.1121 11.2412 24.3809C11.2412 23.6497 11.7412 23.1617 12.4904 23.1617H24.9806C25.7297 23.1617 26.2297 23.6497 26.2297 24.3809C26.2297 25.1121 25.4806 25.6001 24.9806 25.6001Z" fill="#232323"/>
</g>
<defs>
<clipPath id="clip0_307_2001">
<rect width="50" height="44" fill="white"/>
</clipPath>
</defs>
</svg>
