<svg width="20" height="20" viewBox="0 0 20 20" fill="none" xmlns="http://www.w3.org/2000/svg">
<path d="M10.0108 0.833496C4.96362 0.833496 0.854901 4.93867 0.853068 9.98584C0.852151 11.5992 1.27472 13.1742 2.07589 14.562L0.833374 19.1668L5.62976 18.0335C6.96718 18.7632 8.47275 19.1462 10.0054 19.1471H10.009C15.0552 19.1471 19.1622 15.041 19.1649 9.99479C19.1667 7.54821 18.2154 5.24792 16.4865 3.51725C14.7577 1.7875 12.4601 0.834413 10.0108 0.833496ZM10.009 2.66683C11.967 2.66775 13.8071 3.43114 15.1903 4.81348C16.5736 6.19764 17.3334 8.03684 17.3316 9.993C17.3298 14.03 14.046 17.3138 10.0072 17.3138C8.78528 17.3129 7.57491 17.0061 6.50883 16.424L5.89115 16.0874L5.20903 16.2485L3.40434 16.6746L3.84477 15.0382L4.0435 14.3042L3.66394 13.6453C3.02411 12.538 2.68548 11.2719 2.6864 9.98584C2.68823 5.95067 5.97291 2.66683 10.009 2.66683ZM6.77022 5.76058C6.61714 5.76058 6.36963 5.81787 6.15971 6.04704C5.94979 6.27529 5.35763 6.82811 5.35763 7.95378C5.35763 9.07944 6.17761 10.1676 6.2922 10.3206C6.40586 10.4728 7.87498 12.8558 10.2006 13.7725C12.1329 14.5342 12.5254 14.3839 12.9452 14.3454C13.365 14.3078 14.2996 13.793 14.4903 13.2586C14.6809 12.7242 14.6814 12.2645 14.6246 12.1701C14.5677 12.0748 14.4151 12.0179 14.1859 11.9033C13.9577 11.7887 12.8328 11.2364 12.6229 11.1603C12.413 11.0842 12.2595 11.0457 12.1073 11.2749C11.9551 11.5041 11.5178 12.0179 11.384 12.1701C11.2502 12.3232 11.1172 12.3438 10.8881 12.2292C10.6589 12.1137 9.92207 11.8715 9.04757 11.0923C8.3674 10.4864 7.90845 9.73877 7.77462 9.5096C7.6417 9.28135 7.76208 9.15598 7.87667 9.04232C7.97934 8.93965 8.10404 8.77511 8.21863 8.64128C8.33229 8.50744 8.37171 8.41209 8.44779 8.25993C8.52388 8.10776 8.48493 7.97347 8.4281 7.85889C8.37127 7.7443 7.9262 6.61445 7.7227 6.16162C7.55128 5.7812 7.37024 5.77237 7.20707 5.76595C7.07416 5.76045 6.92239 5.76058 6.77022 5.76058Z" fill="black"/>
</svg>
